PathFileType	4	(X/Y/Z)	/Users/itak/Documents/Research/Walk-IL/dataset/trc/00030_00004.trc
DataRate	CameraRate	NumFrames	NumMarkers	Units	OrigDataRate	OrigDataStartFrame	OrigNumFrames
100.000000	100.000000	4	53	mm	100.000000	286	764
Frame#	Time	RPSI			LPSI			L3			STRN			T10			C7			CLAV			RBAK			LBAK			LSHO			LUPA			LAEL			LAOL			LWTS			LWPS			LFRA			LIFD			LHPS			LHTS			RSHO			RUPA			RAEL			RAOL			RWTS			RWPS			RFRA			RIFD			RHTS			RHPS			RBHD			LFHD			RFHD			LBHD			LHIP			RHIP			RASI			LASI			LKNE			LTHI			LANK			LTIP			LTOE			LMT1			LMT5			LHEE			RKNE			RTHI			RANK			RTIP			RTOE			RMT1			RMT5			RHEE			
		X1	Y1	Z1	X2	Y2	Z2	X3	Y3	Z3	X4	Y4	Z4	X5	Y5	Z5	X6	Y6	Z6	X7	Y7	Z7	X8	Y8	Z8	X9	Y9	Z9	X10	Y10	Z10	X11	Y11	Z11	X12	Y12	Z12	X13	Y13	Z13	X14	Y14	Z14	X15	Y15	Z15	X16	Y16	Z16	X17	Y17	Z17	X18	Y18	Z18	X19	Y19	Z19	X20	Y20	Z20	X21	Y21	Z21	X22	Y22	Z22	X23	Y23	Z23	X24	Y24	Z24	X25	Y25	Z25	X26	Y26	Z26	X27	Y27	Z27	X28	Y28	Z28	X29	Y29	Z29	X30	Y30	Z30	X31	Y31	Z31	X32	Y32	Z32	X33	Y33	Z33	X34	Y34	Z34	X35	Y35	Z35	X36	Y36	Z36	X37	Y37	Z37	X38	Y38	Z38	X39	Y39	Z39	X40	Y40	Z40	X41	Y41	Z41	X42	Y42	Z42	X43	Y43	Z43	X44	Y44	Z44	X45	Y45	Z45	X46	Y46	Z46	X47	Y47	Z47	X48	Y48	Z48	X49	Y49	Z49	X50	Y50	Z50	X51	Y51	Z51	X52	Y52	Z52	X53	Y53	Z53	

287	2.86	-375.5159606933594	1016.611206054688	10.68316173553467	-534.4693603515625	1029.388916015625	-16.23393821716309	-462.9876098632812	1092.160766601562	0.861437201499939	-381.339111328125	1259.682495117188	-233.1527709960938	-468.6180419921875	1238.215454101562	8.186078071594238	-439.3941345214844	1499.254638671875	-69.02904510498047	-387.4970092773438	1389.151245117188	-203.4633178710938	-397.8233032226562	1365.045654296875	23.03604698181152	-540.4750366210938	1468.366943359375	-83.79740905761719	-569.4661865234375	1469.68017578125	-205.2002563476562	-675.8612670898438	1366.639404296875	-207.8029632568359	-753.6068725585938	1166.977783203125	-232.5831756591797	-699.5585327148438	1130.826416015625	-146.5777740478516	-699.662353515625	925.7435913085938	-343.7421264648438	-777.1760864257812	911.4285278320312	-302.3422241210938	-772.6622314453125	1059.466918945312	-271.1342163085938	-699.9421997070312	748.0414428710938	-405.9334106445312	-773.6332397460938	831.0245361328125	-354.6235656738281	-713.81298828125	842.7080688476562	-391.5657653808594	-252.6580657958984	1461.878295898438	-75.12064361572266	-201.2118072509766	1394.512573242188	-25.71468734741211	-214.08935546875	1146.57568359375	75.18149566650391	-304.3895568847656	1119.989868164062	43.59845733642578	-212.3076934814453	867.93408203125	-8.627079963684082	-178.2129974365234	862.6867065429688	77.30999755859375	-200.2636108398438	1068.68212890625	84.72199249267578	-246.9862060546875	684.2249755859375	-5.350744724273682	-203.2196044921875	754.455810546875	-17.26773071289062	-179.4586334228516	754.8306274414062	54.09996032714844	-434.9075622558594	1677.4091796875	-201.1016082763672	-221.7852935791016	1635.532958984375	-211.8497924804688	-279.5977478027344	1647.56591796875	-290.1743469238281	-345.3678283691406	1654.851684570312	-90.15241241455078	-633.4917602539062	942.0385131835938	-125.4857635498047	-265.0304870605469	894.4497680664062	-90.22512817382812	-319.1330871582031	936.8206176757812	-199.0876159667969	-548.8290405273438	971.7236938476562	-235.2758941650391	-657.7813720703125	504.8435668945312	-92.06707763671875	-666.1512451171875	646.35888671875	-96.32279205322266	-748.1510620117188	57.52095794677734	120.8551025390625	-721.5645141601562	298.8636779785156	42.30065155029297	-655.1724853515625	40.40159606933594	-85.16847229003906	-648.9432373046875	51.11124038696289	-24.2010555267334	-755.3414916992188	36.53037643432617	-3.152313232421875	-707.9588012695312	76.05960845947266	196.603515625	-254.1109619140625	519.4365844726562	-280.3335876464844	-249.3554382324219	752.0244140625	-149.9352874755859	-286.8480529785156	44.76644897460938	-418.6452026367188	-254.5216369628906	398.1701049804688	-311.0609741210938	-166.9229888916016	140.8761749267578	-592.8629760742188	-230.6591644287109	122.2798309326172	-572.4893188476562	-173.0731506347656	95.28668975830078	-499.5512390136719	-357.221435546875	31.68246841430664	-414.4658508300781	
288	2.87	-370.9833984375	1014.682556152344	1.335898160934448	-529.8179321289062	1027.752807617188	-25.64937210083008	-458.4039611816406	1090.46044921875	-8.504303932189941	-375.152099609375	1257.982055664062	-241.9225158691406	-463.9989624023438	1236.378051757812	-0.9376707673072815	-433.8191833496094	1497.445068359375	-77.75921630859375	-381.1925964355469	1387.398315429688	-211.9687194824219	-393.214599609375	1362.984741210938	14.42992210388184	-534.91357421875	1466.883422851562	-93.28414916992188	-562.9796752929688	1468.259399414062	-214.9377288818359	-669.3043212890625	1365.214599609375	-218.4114379882812	-746.8325805664062	1165.57275390625	-243.9868621826172	-693.6389770507812	1129.344970703125	-157.7131042480469	-690.2182006835938	925.1710815429688	-355.4572143554688	-768.198486328125	910.3008422851562	-315.2774963378906	-764.90380859375	1058.066040039062	-283.2298889160156	-688.8888549804688	747.7474365234375	-418.5422973632812	-763.711669921875	830.1939697265625	-367.9347229003906	-703.306396484375	842.3161010742188	-403.874267578125	-247.0960540771484	1459.5888671875	-82.51176452636719	-196.2533264160156	1392.099853515625	-32.71971130371094	-210.6155700683594	1144.282470703125	68.21742248535156	-300.6963806152344	1117.781127929688	35.9364128112793	-208.9049377441406	865.5747680664062	-15.25971412658691	-175.4511413574219	860.3390502929688	70.97183990478516	-197.0403900146484	1066.4033203125	77.94930267333984	-244.0912475585938	681.9871826171875	-12.09926128387451	-200.0409698486328	752.086669921875	-23.70344924926758	-176.9017791748047	752.4161987304688	47.82493591308594	-428.1712341308594	1675.43896484375	-209.976318359375	-214.9366455078125	1633.63720703125	-218.5218811035156	-271.9548645019531	1645.692504882812	-297.4431457519531	-339.6949157714844	1652.900268554688	-98.13849639892578	-628.882568359375	940.7350463867188	-134.7774200439453	-260.5337829589844	892.740234375	-99.89096832275391	-314.5812377929688	935.2139282226562	-208.6754455566406	-544.3986206054688	970.412353515625	-244.8641510009766	-655.3275146484375	504.1244812011719	-99.11318206787109	-662.9027709960938	645.7467041015625	-104.2997589111328	-748.4281616210938	59.69047927856445	120.1652603149414	-720.3258666992188	300.00244140625	38.13633728027344	-655.2239990234375	40.39789199829102	-85.26773834228516	-649.1425170898438	51.4700927734375	-24.46911239624023	-755.4006958007812	36.61891174316406	-3.575328350067139	-708.2215576171875	79.39056396484375	195.7636566162109	-249.0278472900391	517.9082641601562	-288.47509765625	-245.1074829101562	750.58740234375	-159.6509704589844	-276.440185546875	44.27706527709961	-430.8606872558594	-248.2649841308594	396.8169555664062	-319.5956115722656	-154.2737731933594	142.9538726806641	-601.988037109375	-218.2808074951172	123.7503814697266	-583.002197265625	-161.7883605957031	96.22556304931641	-509.3650207519531	-346.9032897949219	30.62903213500977	-427.90771484375	
289	2.88	-366.1558532714844	1012.924011230469	-8.176770210266113	-524.8772583007812	1026.2607421875	-35.28749847412109	-453.5572204589844	1088.85693359375	-18.0770092010498	-368.7283630371094	1256.41650390625	-250.7523803710938	-459.1005249023438	1234.59619140625	-10.19457626342773	-427.9561462402344	1495.71728515625	-86.49101257324219	-374.6382446289062	1385.78173828125	-220.5203552246094	-388.3024291992188	1360.9755859375	5.77338981628418	-529.0550537109375	1465.511596679688	-102.741813659668	-556.2216186523438	1466.971557617188	-224.6468658447266	-662.4857788085938	1363.933959960938	-228.9228820800781	-739.802978515625	1164.31103515625	-255.1944122314453	-687.4935302734375	1128.050170898438	-168.6064453125	-680.5139770507812	924.665771484375	-366.7492065429688	-758.9896240234375	909.2843627929688	-327.8108520507812	-756.8985595703125	1056.819213867188	-295.0442199707031	-677.5529174804688	747.4612426757812	-430.5314331054688	-753.506591796875	829.4216918945312	-380.7427062988281	-692.5345458984375	841.9523315429688	-415.6654052734375	-241.2417755126953	1457.389404296875	-89.94500732421875	-191.0109558105469	1389.762573242188	-39.78808212280273	-206.9137268066406	1142.033935546875	61.07511138916016	-296.7365417480469	1115.580322265625	28.02900123596191	-205.2450103759766	863.2565307617188	-22.10240173339844	-172.4667663574219	858.0438842773438	64.43631744384766	-193.5932464599609	1064.191040039062	70.97956848144531	-240.9100036621094	679.7958374023438	-19.08513259887695	-196.5684661865234	749.7714233398438	-30.35302352905273	-174.0943603515625	750.0619506835938	41.3520393371582	-421.1786804199219	1673.5537109375	-218.8379364013672	-207.8440399169922	1631.883422851562	-225.1840362548828	-264.0906372070312	1643.955200195312	-304.689208984375	-333.7472839355469	1651.091186523438	-106.09033203125	-623.9611206054688	939.44384765625	-144.2625427246094	-255.7054901123047	891.2635498046875	-109.6425933837891	-309.7455749511719	933.7388916015625	-218.3681945800781	-539.6201782226562	969.1312255859375	-254.6906890869141	-652.7562255859375	503.4090881347656	-106.6675720214844	-659.431396484375	645.135498046875	-112.7319717407227	-748.8110961914062	62.1383171081543	119.3556060791016	-719.0512084960938	301.2778015136719	33.58515930175781	-655.2999877929688	40.42003631591797	-85.34548950195312	-649.3815307617188	51.8887825012207	-24.74458885192871	-755.5164184570312	36.74714279174805	-4.059288501739502	-708.6155395507812	83.13579559326172	194.7590179443359	-243.5819854736328	516.623291015625	-296.8719787597656	-240.4327087402344	749.4707641601562	-169.50537109375	-267.7351379394531	43.37875747680664	-440.9984130859375	-242.0072631835938	395.3928527832031	-328.0733032226562	-143.1407775878906	142.9167785644531	-609.6341552734375	-207.4244689941406	123.5057983398438	-591.8822631835938	-152.0911560058594	95.75786590576172	-517.4232788085938	-338.2290649414062	29.57579040527344	-439.1256103515625	
290	2.89	-361.0464172363281	1011.339477539062	-17.84034729003906	-519.676025390625	1024.9130859375	-45.19018173217773	-448.4672546386719	1087.354858398438	-27.85227394104004	-362.0505065917969	1254.9912109375	-259.6480102539062	-453.9374084472656	1232.883056640625	-19.58879661560059	-421.8081970214844	1494.08154296875	-95.22378540039062	-367.8353271484375	1384.311279296875	-229.10888671875	-383.07666015625	1359.026245117188	-2.941830635070801	-522.9080810546875	1464.260375976562	-112.1761474609375	-549.1904907226562	1465.82421875	-234.3346252441406	-655.4093017578125	1362.8076171875	-239.3471527099609	-732.5283813476562	1163.20166015625	-266.2085266113281	-681.113525390625	1126.936401367188	-179.2602691650391	-670.597412109375	924.2313842773438	-377.6289672851562	-749.5887451171875	908.38427734375	-339.9410400390625	-748.6631469726562	1055.734985351562	-306.5753784179688	-665.9896850585938	747.1859130859375	-441.9031066894531	-743.0532836914062	828.71337890625	-393.0400695800781	-681.5430908203125	841.6194458007812	-426.9447937011719	-235.0917205810547	1455.294799804688	-97.42391967773438	-185.4764251708984	1387.514038085938	-46.92716598510742	-202.9736938476562	1139.849975585938	53.757568359375	-292.4948425292969	1113.421997070312	19.86423110961914	-201.316162109375	860.99853515625	-29.14891624450684	-169.265380859375	855.8140869140625	57.70534896850586	-189.9135131835938	1062.061645507812	63.8150749206543	-237.4430694580078	677.6685180664062	-26.3104305267334	-192.792724609375	747.526123046875	-37.21253967285156	-171.0374603271484	747.782958984375	34.68521118164062	-413.9410095214844	1671.77490234375	-227.67041015625	-200.5157165527344	1630.290283203125	-231.8320922851562	-256.0054626464844	1642.378295898438	-311.9046325683594	-327.5400695800781	1649.4267578125	-114.0065231323242	-618.732666015625	938.1519775390625	-154.0091094970703	-250.545654296875	890.0258178710938	-119.4527816772461	-304.5992736816406	932.3988647460938	-228.1498870849609	-534.4668579101562	967.8902587890625	-264.7817687988281	-650.072509765625	502.7001647949219	-114.7430648803711	-655.7437133789062	644.540283203125	-121.619743347168	-749.3142700195312	64.89431762695312	118.393684387207	-717.7556762695312	302.7142944335938	28.62229156494141	-655.406005859375	40.47500610351562	-85.39649963378906	-649.662841796875	52.37277221679688	-25.02605438232422	-755.698486328125	36.92642211914062	-4.615381717681885	-709.15283203125	87.33257293701172	193.549072265625	-237.7653503417969	515.5451049804688	-305.4401245117188	-235.3086853027344	748.647705078125	-179.4367218017578	-260.8012084960938	42.07209396362305	-449.177978515625	-235.7457427978516	393.8743591308594	-336.476318359375	-133.5285797119141	140.6696014404297	-615.957763671875	-198.0976104736328	121.4721221923828	-599.2871704101562	-144.01611328125	93.79405975341797	-523.8817138671875	-331.26708984375	28.57017517089844	-448.2373657226562	
